<?xml version="1.0" encoding="UTF-8"?>
<svg xmlns="http://www.w3.org/2000/svg" version="1.1" width="200" height="200" viewBox="0 0 200 200"><rect x="0" y="0" width="200" height="200" fill="#ffffff"/><g transform="scale(6.897)"><g transform="translate(0,0)"><path fill-rule="evenodd" d="M9 0L9 1L8 1L8 3L9 3L9 4L8 4L8 8L6 8L6 9L7 9L7 10L4 10L4 11L3 11L3 14L2 14L2 11L1 11L1 13L0 13L0 17L1 17L1 15L3 15L3 16L2 16L2 17L3 17L3 18L2 18L2 19L3 19L3 20L2 20L2 21L3 21L3 20L4 20L4 21L5 21L5 18L6 18L6 19L8 19L8 20L9 20L9 19L10 19L10 21L11 21L11 22L10 22L10 23L9 23L9 21L8 21L8 23L9 23L9 25L8 25L8 26L9 26L9 27L8 27L8 29L11 29L11 28L12 28L12 29L14 29L14 28L12 28L12 24L14 24L14 25L13 25L13 27L15 27L15 28L16 28L16 27L15 27L15 24L16 24L16 25L18 25L18 26L17 26L17 29L18 29L18 27L19 27L19 26L21 26L21 27L20 27L20 28L19 28L19 29L21 29L21 27L22 27L22 26L24 26L24 27L23 27L23 28L22 28L22 29L23 29L23 28L24 28L24 27L25 27L25 28L26 28L26 27L27 27L27 29L28 29L28 27L29 27L29 26L28 26L28 25L27 25L27 26L26 26L26 24L28 24L28 23L27 23L27 22L26 22L26 23L25 23L25 21L27 21L27 20L28 20L28 22L29 22L29 20L28 20L28 19L29 19L29 17L28 17L28 15L29 15L29 14L28 14L28 15L27 15L27 14L26 14L26 12L27 12L27 10L26 10L26 11L25 11L25 14L24 14L24 15L23 15L23 14L21 14L21 15L18 15L18 12L17 12L17 11L18 11L18 9L17 9L17 8L18 8L18 7L19 7L19 6L20 6L20 8L21 8L21 3L20 3L20 5L19 5L19 1L20 1L20 2L21 2L21 1L20 1L20 0L18 0L18 2L17 2L17 1L16 1L16 0L14 0L14 1L15 1L15 2L14 2L14 4L13 4L13 6L12 6L12 5L11 5L11 6L10 6L10 5L9 5L9 4L12 4L12 3L13 3L13 0L12 0L12 1L11 1L11 2L9 2L9 1L10 1L10 0ZM15 2L15 3L17 3L17 4L16 4L16 6L15 6L15 9L14 9L14 13L13 13L13 15L15 15L15 18L14 18L14 17L13 17L13 16L12 16L12 14L11 14L11 16L12 16L12 17L11 17L11 19L12 19L12 20L13 20L13 21L14 21L14 22L15 22L15 23L14 23L14 24L15 24L15 23L16 23L16 22L17 22L17 24L19 24L19 25L20 25L20 22L19 22L19 23L18 23L18 20L19 20L19 21L20 21L20 20L21 20L21 18L22 18L22 17L23 17L23 19L22 19L22 20L27 20L27 19L28 19L28 17L27 17L27 15L26 15L26 14L25 14L25 16L24 16L24 17L23 17L23 16L20 16L20 17L19 17L19 19L18 19L18 17L16 17L16 15L17 15L17 14L16 14L16 13L17 13L17 12L15 12L15 11L17 11L17 10L16 10L16 8L17 8L17 7L18 7L18 6L19 6L19 5L18 5L18 3L17 3L17 2ZM17 5L17 6L16 6L16 7L17 7L17 6L18 6L18 5ZM9 6L9 7L10 7L10 8L8 8L8 10L7 10L7 11L6 11L6 12L9 12L9 14L10 14L10 13L12 13L12 12L13 12L13 8L14 8L14 6L13 6L13 8L12 8L12 6L11 6L11 7L10 7L10 6ZM0 8L0 10L3 10L3 9L4 9L4 8L3 8L3 9L2 9L2 8ZM10 8L10 10L9 10L9 11L11 11L11 10L12 10L12 9L11 9L11 8ZM22 8L22 11L20 11L20 10L21 10L21 9L20 9L20 10L19 10L19 12L22 12L22 13L23 13L23 12L22 12L22 11L23 11L23 10L24 10L24 9L25 9L25 8ZM26 8L26 9L28 9L28 10L29 10L29 9L28 9L28 8ZM4 11L4 13L5 13L5 16L3 16L3 17L4 17L4 18L5 18L5 16L8 16L8 19L9 19L9 17L10 17L10 16L9 16L9 15L6 15L6 14L7 14L7 13L5 13L5 11ZM28 12L28 13L29 13L29 12ZM19 13L19 14L20 14L20 13ZM3 14L3 15L4 15L4 14ZM25 16L25 17L26 17L26 18L25 18L25 19L27 19L27 17L26 17L26 16ZM6 17L6 18L7 18L7 17ZM20 17L20 18L21 18L21 17ZM0 18L0 19L1 19L1 18ZM13 18L13 20L14 20L14 21L15 21L15 20L16 20L16 19L15 19L15 20L14 20L14 18ZM17 19L17 20L18 20L18 19ZM19 19L19 20L20 20L20 19ZM0 20L0 21L1 21L1 20ZM6 20L6 21L7 21L7 20ZM21 21L21 24L24 24L24 21ZM22 22L22 23L23 23L23 22ZM10 23L10 25L9 25L9 26L10 26L10 27L9 27L9 28L11 28L11 26L10 26L10 25L11 25L11 23ZM27 26L27 27L28 27L28 26ZM0 0L0 7L7 7L7 0ZM1 1L1 6L6 6L6 1ZM2 2L2 5L5 5L5 2ZM22 0L22 7L29 7L29 0ZM23 1L23 6L28 6L28 1ZM24 2L24 5L27 5L27 2ZM0 22L0 29L7 29L7 22ZM1 23L1 28L6 28L6 23ZM2 24L2 27L5 27L5 24Z" fill="#000000"/></g></g></svg>
